<svg className="spotlight" viewBox="0 0 524 504" fill="none" xmlns="http://www.w3.org/2000/svg">
<path d="M58.6263 498.902C61.5066 497.969 63.7747 496.72 65.3768 495.208C64.9178 495.399 64.4479 495.581 63.9699 495.754C59.2522 497.467 53.0601 498.603 46.8329 498.961C40.6155 499.318 34.1042 498.915 28.7862 497.371C28.0616 497.161 27.3403 496.924 26.6319 496.656C27.2964 497.023 28.0502 497.382 28.8913 497.725C32.7163 499.287 37.8775 500.341 43.3007 500.607C48.7226 500.873 54.1849 500.34 58.6263 498.902Z" fill="#C4C4C4" stroke="black" stroke-width="6"/>
<path d="M23.1624 487.392C23.1624 488.771 24.4719 490.944 28.7545 492.949C32.7966 494.841 38.5917 496.093 45.1546 496.093C51.7176 496.093 57.5127 494.841 61.5548 492.949C65.8374 490.944 67.1469 488.771 67.1469 487.392C67.1469 486.014 65.8374 483.841 61.5548 481.836C57.5127 479.943 51.7176 478.692 45.1546 478.692C38.5917 478.692 32.7966 479.943 28.7545 481.836C24.4719 483.841 23.1624 486.014 23.1624 487.392Z" fill="#C4C4C4" stroke="black" stroke-width="6"/>
<path d="M55.8602 444.741L69.5003 431.255C56.875 432.068 44.7398 426.939 36.0486 419.166C27.8508 411.833 22.1255 401.514 22.2791 390.981L7.09149 404.797C7.06542 404.821 7.04243 404.844 7.02414 404.865C7.00563 404.886 6.99767 404.898 6.99823 404.897C3.49642 410.116 3.2244 415.914 5.33578 421.781C7.48669 427.758 12.1072 433.698 18.1269 438.505C24.1341 443.302 31.2635 446.752 38.1208 447.988C44.8633 449.204 51.0513 448.249 55.8602 444.741Z" fill="#C4C4C4" stroke="black" stroke-width="8"/>
<path d="M38.19 421.279C30.0511 414.951 24.9197 406.694 23.0036 398.611C21.1051 390.602 22.2889 382.277 27.6174 376.393C32.9046 370.555 41.416 367.881 50.213 368.1C59.0821 368.321 68.6944 371.46 76.8479 377.799C84.9897 384.129 90.2452 392.536 92.3042 400.742C94.3384 408.85 93.3631 417.384 87.9826 423.325C82.6326 429.233 73.9013 431.689 65.0196 431.295C56.0475 430.898 46.3263 427.605 38.19 421.279Z" fill="#A7A7A7" stroke="black" stroke-width="8"/>
<path d="M40.8945 417.729C34.0438 412.211 29.2559 405.314 27.2628 398.389C25.2824 391.509 25.9406 383.902 31.2917 378.198C36.6427 372.495 44.6813 370.832 52.3103 371.692C59.9887 372.557 68.0264 375.99 74.8771 381.508C81.7278 387.025 86.5157 393.922 88.5088 400.847C90.4891 407.727 89.831 415.335 84.4799 421.038C79.1288 426.742 71.0902 428.404 63.4613 427.545C55.7828 426.68 47.7451 423.247 40.8945 417.729Z" fill="#FAFF00" stroke="black" stroke-width="12"/>
<path d="M47.6256 464.602H42.2616V487.682C42.9035 487.906 43.8775 488.081 44.9921 488.097C46.089 488.112 47.02 487.968 47.6256 487.773V464.602ZM41.7003 487.421C41.6966 487.422 41.7179 487.44 41.7752 487.472C41.7326 487.436 41.704 487.42 41.7003 487.421ZM48.1363 487.554C48.1351 487.554 48.1221 487.561 48.101 487.576C48.1269 487.562 48.1375 487.554 48.1363 487.554Z" fill="#C4C4C4" stroke="black" stroke-width="7"/>
<mask id="path-7-inside-1" fill="white">
<ellipse rx="6.18202" ry="2.4968" transform="matrix(-1 0 0 1 44.9436 460.956)"/>
</mask>
<ellipse rx="6.18202" ry="2.4968" transform="matrix(-1 0 0 1 44.9436 460.956)" fill="#C4C4C4"/>
<path d="M44.7616 460.956C44.7616 459.141 43.826 458.003 43.391 457.588C42.971 457.187 42.6819 457.102 42.8192 457.158C43.0622 457.256 43.8105 457.452 44.9436 457.452V469.452C42.6625 469.452 40.3198 469.09 38.3253 468.284C37.3439 467.888 36.1495 467.265 35.1038 466.267C34.0431 465.254 32.7616 463.46 32.7616 460.956H44.7616ZM44.9436 457.452C46.0767 457.452 46.825 457.256 47.068 457.158C47.2053 457.102 46.9162 457.187 46.4962 457.588C46.0612 458.003 45.1256 459.141 45.1256 460.956H57.1256C57.1256 463.46 55.844 465.254 54.7834 466.267C53.7377 467.265 52.5433 467.888 51.5619 468.284C49.5674 469.09 47.2247 469.452 44.9436 469.452V457.452ZM45.1256 460.956C45.1256 462.77 46.0612 463.908 46.4962 464.323C46.9162 464.724 47.2053 464.809 47.068 464.753C46.825 464.655 46.0767 464.459 44.9436 464.459V452.459C47.2247 452.459 49.5674 452.821 51.5619 453.627C52.5433 454.023 53.7377 454.646 54.7834 455.644C55.844 456.657 57.1256 458.451 57.1256 460.956H45.1256ZM44.9436 464.459C43.8105 464.459 43.0622 464.655 42.8192 464.753C42.6819 464.809 42.971 464.724 43.391 464.323C43.826 463.908 44.7616 462.77 44.7616 460.956H32.7616C32.7616 458.451 34.0431 456.657 35.1038 455.644C36.1495 454.646 37.3439 454.023 38.3253 453.627C40.3198 452.821 42.6625 452.459 44.9436 452.459V464.459Z" fill="black" mask="url(#path-7-inside-1)"/>
<path d="M24.2545 420.107C24.0719 419.846 23.7495 419.572 22.7152 419.594C21.6132 419.617 20.2236 419.995 18.7746 420.559L12.8287 422.873C13.2808 423.429 13.6639 424.034 13.9698 424.67C14.3425 425.445 14.6045 426.281 14.7377 427.143L20.5082 424.902C21.9342 424.348 23.1762 423.688 23.9746 422.965C24.7186 422.292 24.8072 421.842 24.7608 421.464C24.6986 420.956 24.5215 420.49 24.2545 420.107Z" fill="#C4C4C4" fill-opacity="0.49" stroke="black" stroke-width="6"/>
<mask id="path-10-inside-2" fill="white">
<ellipse rx="4.34965" ry="5.36942" transform="matrix(-0.91243 0.409234 0.463053 0.88633 7.77179 427.34)"/>
</mask>
<ellipse rx="4.34965" ry="5.36942" transform="matrix(-0.91243 0.409234 0.463053 0.88633 7.77179 427.34)" fill="#A7A7A7"/>
<path d="M9.27763 426.665C9.36869 426.839 9.42569 426.799 9.22866 426.708C9.01737 426.611 8.31696 426.406 7.4798 426.781L13.0364 437.417C6.80017 440.214 0.660768 436.04 -1.67153 431.575L9.27763 426.665ZM7.4798 426.781C6.64264 427.156 6.38197 427.793 6.33345 428.007C6.2882 428.206 6.35702 428.19 6.26596 428.015L17.2151 423.104C19.5474 427.569 19.2727 434.62 13.0364 437.417L7.4798 426.781ZM6.26596 428.015C6.1749 427.841 6.11789 427.88 6.31492 427.971C6.52621 428.069 7.22663 428.274 8.06379 427.899L2.50715 417.263C8.74342 414.466 14.8828 418.64 17.2151 423.104L6.26596 428.015ZM8.06379 427.899C8.90094 427.523 9.16162 426.887 9.21014 426.673C9.25539 426.473 9.18656 426.49 9.27763 426.665L-1.67153 431.575C-4.00382 427.111 -3.72912 420.06 2.50715 417.263L8.06379 427.899Z" fill="black" mask="url(#path-10-inside-2)"/>
<mask id="path-12-inside-3" fill="white">
<path d="M67.8223 437.505L64.0179 441.324V441.723C64.0179 450.661 58.7001 458.742 50.4915 462.277V466.536C60.9976 462.085 67.8223 451.781 67.8223 440.37V437.505Z"/>
</mask>
<path d="M67.8223 437.505L64.0179 441.324V441.723C64.0179 450.661 58.7001 458.742 50.4915 462.277V466.536C60.9976 462.085 67.8223 451.781 67.8223 440.37V437.505Z" fill="#A7A7A7"/>
<path d="M67.8223 437.505L63.5717 433.27L73.8223 422.981V437.505H67.8223ZM64.0179 441.324H58.0179V438.845L59.7673 437.089L64.0179 441.324ZM72.0729 441.74L68.2685 445.558L59.7673 437.089L63.5717 433.27L72.0729 441.74ZM61.8223 440.37V437.505H73.8223V440.37H61.8223ZM70.0179 441.324V441.723H58.0179V441.324H70.0179ZM56.4915 462.277V466.536H44.4915V462.277H56.4915ZM70.0179 441.723C70.0179 453.057 63.2743 463.304 52.8649 467.788L48.1181 456.766C54.1258 454.179 58.0179 448.265 58.0179 441.723H70.0179ZM48.1506 461.012C56.4385 457.5 61.8223 449.372 61.8223 440.37H73.8223C73.8223 454.19 65.5567 466.669 52.8324 472.061L48.1506 461.012Z" fill="black" mask="url(#path-12-inside-3)"/>
<mask id="path-14-inside-4" fill="white">
<path d="M39.2899 465.473C29.7231 469.441 19.2114 462.351 19.3065 451.995L19.5285 427.826L14.6675 429.784V453.794C14.6675 466.477 27.619 475.041 39.2899 470.075V465.473Z"/>
</mask>
<path d="M39.2899 465.473C29.7231 469.441 19.2114 462.351 19.3065 451.995L19.5285 427.826L14.6675 429.784V453.794C14.6675 466.477 27.619 475.041 39.2899 470.075V465.473Z" fill="#A7A7A7"/>
<path d="M14.6675 429.784H8.66746V425.732L12.4255 424.219L14.6675 429.784ZM19.5285 427.826L17.2865 422.26L25.6107 418.907L25.5283 427.881L19.5285 427.826ZM20.6675 429.784V453.794H8.66746V429.784H20.6675ZM33.2899 470.075V465.473H45.2899V470.075H33.2899ZM21.7705 433.391L16.9095 435.349L12.4255 424.219L17.2865 422.26L21.7705 433.391ZM13.3068 451.94L13.5288 427.771L25.5283 427.881L25.3063 452.05L13.3068 451.94ZM41.5886 471.016C28.049 476.631 13.1722 466.597 13.3068 451.94L25.3063 452.05C25.2507 458.106 31.3972 462.251 36.9912 459.931L41.5886 471.016ZM20.6675 453.794C20.6675 462.176 29.2273 467.836 36.9407 464.554L41.639 475.596C26.0108 482.246 8.66746 470.778 8.66746 453.794H20.6675Z" fill="black" mask="url(#path-14-inside-4)"/>
<path d="M310.559 73.3646L41.4034 381.401L57.7302 401.865L73.7929 419.244L467.751 188.119L310.559 73.3646Z" fill="#FAFF00" fill-opacity="0.45"/>
<path d="M411.532 203.652C351.334 203.652 302.064 158.982 302.064 103.326C302.064 47.6697 351.334 3 411.532 3C471.73 3 521 47.6697 521 103.326C521 158.982 471.73 203.652 411.532 203.652Z" fill="#F5F871" stroke="black" stroke-width="6"/>
<path d="M343.17 61.8999C343.17 54.7202 348.991 48.8999 356.17 48.8999H412.085H468C475.18 48.8999 481 54.7202 481 61.8999V113.54C481 117.363 479.318 120.991 476.401 123.461L420.486 170.806C415.638 174.911 408.533 174.911 403.685 170.806L347.77 123.461C344.853 120.991 343.17 117.363 343.17 113.54V61.8999Z" fill="#770000"/>
<path d="M343.17 61.8999C343.17 54.7202 348.991 48.8999 356.17 48.8999H412.085H468C475.18 48.8999 481 54.7202 481 61.8999V113.54C481 117.363 479.318 120.991 476.401 123.461L420.486 170.806C415.638 174.911 408.533 174.911 403.685 170.806L347.77 123.461C344.853 120.991 343.17 117.363 343.17 113.54V61.8999Z" fill="url(#paint0_diamond)"/>
<path d="M350.055 65.2009C350.055 59.6781 354.532 55.2009 360.055 55.2009H412.085H464.115C469.638 55.2009 474.115 59.6781 474.115 65.2009V112.325C474.115 115.28 472.808 118.084 470.546 119.984L418.393 163.773C414.669 166.901 409.234 166.895 405.516 163.759L353.608 119.983C351.355 118.083 350.055 115.286 350.055 112.338V65.2009Z" fill="#01001D"/>
<path d="M350.055 65.2009C350.055 59.6781 354.532 55.2009 360.055 55.2009H412.085H464.115C469.638 55.2009 474.115 59.6781 474.115 65.2009V112.325C474.115 115.28 472.808 118.084 470.546 119.984L418.393 163.773C414.669 166.901 409.234 166.895 405.516 163.759L353.608 119.983C351.355 118.083 350.055 115.286 350.055 112.338V65.2009Z" fill="url(#paint1_radial)"/>
<path d="M459.745 103.741C459.716 103.864 459.687 103.984 459.659 104.103C458.78 106.246 456.427 108.114 452.746 109.56C448.351 111.285 442.574 112.183 436.919 112.242L436.903 112.242C426.095 112.465 417.195 111.364 401.148 108.417C397.248 107.701 393.271 107.537 389.334 107.864C380.79 108.574 375.176 108.67 371.709 108.391C369.961 108.251 368.861 108.022 368.231 107.784C368.125 107.744 368.042 107.708 367.979 107.677C368.465 104.259 369.453 102.444 370.165 101.138C370.248 100.985 370.328 100.839 370.402 100.698C371.124 99.3325 370.986 97.8665 370.781 96.7881C370.587 95.7704 370.386 94.8375 370.201 93.9846L370.183 93.8989C369.899 92.5859 370.043 91.5607 370.408 90.772C370.776 89.9776 371.418 89.3117 372.311 88.8113C374.131 87.7913 376.896 87.529 379.715 88.358C379.715 88.358 379.715 88.358 379.715 88.358L380.012 88.4449C382.714 89.2349 385.58 89.1597 388.238 88.303L389.872 87.7768C391.954 87.1058 393.702 85.651 395.05 83.9839C396.404 82.3091 397.43 80.3305 398.04 78.4506C398.444 77.2093 399.088 76.4113 399.822 75.9172C400.566 75.4165 401.499 75.1633 402.566 75.1834C404.735 75.2242 407.301 76.4021 409.238 78.5125C409.999 79.3415 410.772 80.1556 411.562 80.9546C413.736 83.1529 416.036 85.2354 418.563 87.1994C421.208 89.2541 424.096 91.1741 427.342 92.9599C427.458 93.0233 427.574 93.0852 427.692 93.1456C430.568 94.6234 434.029 95.1195 437.475 95.2795C439.665 95.3812 441.988 95.3476 444.216 95.3154C445.455 95.2975 446.665 95.28 447.807 95.2864C451.122 95.3051 453.955 95.5202 456.078 96.3285C458.084 97.0917 459.398 98.3515 459.893 100.622C459.989 101.062 460.044 101.543 460.049 102.069C460.05 102.228 460.045 102.384 460.033 102.537C459.93 102.958 459.835 103.358 459.745 103.741ZM367.786 107.559C367.787 107.559 367.795 107.565 367.806 107.577C367.791 107.566 367.785 107.559 367.786 107.559ZM376.421 116.774C372.734 116.683 369.638 114.283 368.453 110.964C369.292 111.15 370.295 111.288 371.464 111.382C375.18 111.68 380.988 111.567 389.578 110.854C393.267 110.548 396.978 110.702 400.602 111.368C410.985 113.275 418.471 114.428 425.455 114.945C419.596 114.992 412.713 114.894 404.616 114.64C401.566 114.545 398.605 115.097 395.786 115.861C393.393 116.51 389.005 117.087 376.421 116.774Z" fill="#FFC700" stroke="#FFF7AA" stroke-width="3" stroke-linecap="round" stroke-linejoin="round"/>
<defs>
<radialGradient id="paint0_diamond" cx="0" cy="0" r="1" gradientUnits="userSpaceOnUse" gradientTransform="translate(481 48.8999) rotate(133.377) scale(117.884 153.933)">
<stop stop-color="#BC6E6E" stop-opacity="0.46"/>
<stop offset="1" stop-color="white" stop-opacity="0"/>
</radialGradient>
<radialGradient id="paint1_radial" cx="0" cy="0" r="1" gradientUnits="userSpaceOnUse" gradientTransform="translate(410.108 100.765) rotate(88.9958) scale(112.792 124.047)">
<stop stop-color="#6B6B88"/>
<stop offset="1" stop-opacity="0"/>
</radialGradient>
</defs>
</svg>
